<svg xmlns="http://www.w3.org/2000/svg" width="48" height="32" viewBox="0 0 48 32" fill="none">
    <path opacity="0.07" d="M47.209 12.6217C47.209 23.9354 36.4472 31.4778 25.3175 29.5462V21.9118C31.1123 22.9236 35.5274 21.2679 36.9991 16.8528C36.2633 17.0368 35.5274 17.1287 34.8835 17.1287C30.2845 17.1287 26.8812 13.6335 26.8812 9.31033C26.8812 4.34334 30.6524 0.848054 36.5392 0.848054C42.7939 0.848054 47.209 5.07919 47.209 12.6217ZM22.558 12.6217C22.558 23.9354 11.7962 31.4778 0.666486 29.5462V21.9118C6.46131 22.9236 10.8764 21.2679 12.3481 16.8528C11.6123 17.0368 10.8764 17.1287 10.2325 17.1287C5.63348 17.1287 2.23017 13.6335 2.23017 9.31033C2.23017 4.34334 6.00141 0.848054 11.8882 0.848054C18.1429 0.848054 22.558 5.07919 22.558 12.6217Z" fill="black"/>
</svg>