<svg xmlns="http://www.w3.org/2000/svg" class="icon icon-check-circle" width="18" height="17" viewBox="0 0 18 17" fill="none">
    <path opacity="0.5" d="M17.0233 8.46866C17.0233 13.1457 13.2317 16.9373 8.5546 16.9373C3.87748 16.9373 0.0859375 13.1457 0.0859375 8.46866C0.0859375 3.79155 3.87748 0 8.5546 0C13.2317 0 17.0233 3.79155 17.0233 8.46866Z" fill="rgb(var(--color-accent-1))"/>
    <path d="M11.9645 5.90167C12.2125 6.1497 12.2125 6.55186 11.9645 6.79988L7.73012 11.0342C7.48207 11.2823 7.07998 11.2823 6.83191 11.0342L5.13818 9.34048C4.89014 9.09243 4.89014 8.69034 5.13818 8.44229C5.38622 8.19424 5.78838 8.19424 6.03641 8.44229L7.28103 9.68684L9.1736 7.79427L11.0663 5.90167C11.3143 5.65363 11.7164 5.65363 11.9645 5.90167Z" fill="white"/>
</svg>